P2 24 7 255
0	0	0	0	0	0	0	0	0	0	0	0	0	0	0	0	0	0	0	0	0	0	0	0	
0	32	16	0	24	24	89	77	36	0	57	57	138	125	61	0	89	89	190	170	85	85	170	0	
0	24	24	16	32	16	113	57	57	36	77	36	178	89	89	61	125	61	243	121	121	121	121	0	
0	24	24	24	24	0	113	57	57	57	57	0	178	89	89	89	89	0	243	121	121	85	170	0	
0	16	49	36	16	0	113	57	57	36	77	36	178	89	89	61	125	61	243	85	255	243	190	0	
0	24	36	0	0	0	89	77	36	0	57	57	138	125	61	0	89	89	190	121	190	0	0	0	
0	0	0	0	0	0	0	0	0	0	0	0	0	0	0	0	0	0	0	0	0	0	0	0	